<svg width="512" height="512" viewBox="0 0 512 512" fill="none" xmlns="http://www.w3.org/2000/svg">
<path d="M140.353 112.784L372.128 114.011L377.94 120.142L443 186.363H158.748V331.069H442.028L373.354 403.422H140.353L68 331.069V186.363L140.353 112.784Z" fill="black"/>
<path d="M299.774 78.4476H244.59V220.701L329.206 177.78H337.79H369.675V448.797L363.543 467.191L352.506 483.134L337.79 494.17L320.622 500.302H229.874L211.479 496.623L195.537 488.039L180.821 469.644L173.463 447.57V412.007H244.59V432.854H299.774L298.548 273.433L186.953 331.07H173.463V64.9581L178.369 47.7896L188.179 31.8475L204.121 18.3579L224.969 11L318.169 12.2263L336.564 17.1316L353.733 30.6211L364.769 46.5633L369.675 63.2156V102.974H299.774V78.4476Z" fill="#FF0000"/>
<path d="M271.628 144.217C272.46 144.217 273.25 144.388 273.996 144.729C274.743 145.049 275.394 145.486 275.948 146.041C276.524 146.596 276.972 147.246 277.292 147.993C277.612 148.74 277.772 149.529 277.772 150.361H269.612V150.329C269.612 149.774 269.41 149.305 269.004 148.921C268.599 148.516 268.119 148.313 267.564 148.313H263.436C262.882 148.313 262.402 148.516 261.996 148.921C261.612 149.305 261.42 149.774 261.42 150.329V154.425C261.42 154.98 261.612 155.46 261.996 155.865C262.402 156.27 262.882 156.473 263.436 156.473H267.564C268.119 156.473 268.588 156.281 268.972 155.897C269.378 155.492 269.591 155.012 269.612 154.457H277.772C277.772 155.289 277.602 156.078 277.26 156.825C276.94 157.55 276.492 158.19 275.916 158.745C275.362 159.3 274.711 159.737 273.964 160.057C273.239 160.377 272.46 160.537 271.628 160.537H259.372C258.54 160.537 257.751 160.377 257.004 160.057C256.258 159.737 255.607 159.3 255.052 158.745C254.498 158.169 254.06 157.518 253.74 156.793C253.42 156.046 253.26 155.257 253.26 154.425V150.329C253.26 149.497 253.42 148.718 253.74 147.993C254.06 147.246 254.498 146.596 255.052 146.041C255.607 145.465 256.258 145.017 257.004 144.697C257.751 144.377 258.54 144.217 259.372 144.217H271.628ZM280.385 149.401V144.217H288.545V149.401C288.545 149.7 288.641 149.956 288.833 150.169C289.047 150.361 289.303 150.457 289.601 150.457H296.737V144.217H304.897V154.425C304.897 155.257 304.737 156.046 304.417 156.793C304.097 157.518 303.66 158.169 303.105 158.745C302.551 159.3 301.9 159.737 301.153 160.057C300.407 160.377 299.617 160.537 298.785 160.537H280.385V156.473H294.721C295.276 156.473 295.735 156.292 296.097 155.929C296.481 155.545 296.695 155.076 296.737 154.521H285.505C284.801 154.521 284.14 154.393 283.521 154.137C282.903 153.86 282.359 153.486 281.889 153.017C281.441 152.548 281.079 152.004 280.801 151.385C280.524 150.766 280.385 150.105 280.385 149.401ZM307.51 144.217H327.478C328.097 144.302 328.684 144.484 329.238 144.761C329.793 145.017 330.273 145.358 330.678 145.785C331.084 146.19 331.404 146.67 331.638 147.225C331.873 147.78 331.99 148.377 331.99 149.017V149.369C331.99 149.924 331.852 150.457 331.574 150.969C331.318 151.46 331.03 151.918 330.71 152.345C331.03 152.772 331.318 153.252 331.574 153.785C331.852 154.297 331.99 154.83 331.99 155.385V155.737C331.99 156.42 331.841 157.06 331.542 157.657C331.265 158.233 330.881 158.734 330.39 159.161C329.921 159.588 329.377 159.929 328.758 160.185C328.161 160.42 327.532 160.537 326.87 160.537H307.51V144.217ZM323.094 154.393H318.23V150.329H322.806C323.105 150.329 323.35 150.233 323.542 150.041C323.756 149.828 323.862 149.561 323.862 149.241C323.862 148.942 323.756 148.697 323.542 148.505C323.35 148.313 323.105 148.217 322.806 148.217H315.67V156.473H322.806C323.105 156.473 323.35 156.377 323.542 156.185C323.756 155.972 323.862 155.705 323.862 155.385C323.862 155.15 323.788 154.948 323.638 154.777C323.489 154.585 323.308 154.457 323.094 154.393ZM359.116 149.401C359.116 150.105 358.977 150.766 358.7 151.385C358.423 152.004 358.049 152.548 357.58 153.017C357.132 153.486 356.599 153.86 355.98 154.137C355.361 154.393 354.7 154.521 353.996 154.521H345.324V150.457H349.9C350.199 150.457 350.444 150.361 350.636 150.169C350.849 149.956 350.956 149.7 350.956 149.401V149.305C350.956 149.028 350.849 148.793 350.636 148.601C350.444 148.409 350.199 148.313 349.9 148.313H344.78C344.225 148.313 343.745 148.516 343.34 148.921C342.956 149.305 342.764 149.774 342.764 150.329V154.425C342.764 154.98 342.956 155.46 343.34 155.865C343.745 156.27 344.225 156.473 344.78 156.473H359.116V160.537H340.716C339.884 160.537 339.095 160.377 338.348 160.057C337.601 159.737 336.951 159.3 336.396 158.745C335.841 158.169 335.404 157.518 335.084 156.793C334.764 156.046 334.604 155.257 334.604 154.425V150.329C334.604 149.497 334.764 148.718 335.084 147.993C335.404 147.246 335.841 146.596 336.396 146.041C336.951 145.465 337.601 145.017 338.348 144.697C339.095 144.377 339.884 144.217 340.716 144.217H353.996C354.657 144.217 355.287 144.345 355.884 144.601C356.503 144.857 357.047 145.209 357.516 145.657C358.007 146.105 358.391 146.628 358.668 147.225C358.967 147.822 359.116 148.462 359.116 149.145V149.401ZM372.449 155.417V153.721H376.033C376.332 153.721 376.609 153.646 376.865 153.497C377.121 153.348 377.334 153.166 377.505 152.953C377.697 152.718 377.836 152.473 377.921 152.217C378.028 151.94 378.081 151.673 378.081 151.417V150.329C378.081 149.774 377.878 149.305 377.473 148.921C377.068 148.516 376.588 148.313 376.033 148.313H369.889V160.537H361.729V144.217H380.097C380.929 144.217 381.718 144.377 382.465 144.697C383.212 145.017 383.862 145.465 384.417 146.041C384.993 146.596 385.441 147.246 385.761 147.993C386.081 148.718 386.241 149.497 386.241 150.329V151.673C386.241 152.121 386.145 152.58 385.953 153.049C385.782 153.518 385.537 153.977 385.217 154.425C384.918 154.873 384.566 155.3 384.161 155.705C383.756 156.089 383.329 156.43 382.881 156.729L386.145 160.537H376.929L372.449 155.417Z" fill="white"/>
<path d="M125.395 360.325C125.395 359.829 125.499 359.357 125.707 358.909C125.931 358.461 126.219 358.077 126.571 357.757C126.939 357.421 127.347 357.157 127.795 356.965C128.259 356.773 128.739 356.677 129.235 356.677H142.147V359.749H132.307C132.083 359.749 131.891 359.821 131.731 359.965C131.587 360.093 131.515 360.277 131.515 360.517C131.515 360.741 131.587 360.917 131.731 361.045C131.891 361.173 132.083 361.237 132.307 361.237H138.307C138.835 361.237 139.331 361.333 139.795 361.525C140.259 361.717 140.659 361.989 140.995 362.341C141.347 362.677 141.627 363.077 141.835 363.541C142.043 363.989 142.147 364.477 142.147 365.005V365.197C142.147 365.709 142.035 366.189 141.811 366.637C141.603 367.085 141.315 367.477 140.947 367.813C140.595 368.149 140.187 368.421 139.723 368.629C139.275 368.821 138.803 368.917 138.307 368.917H125.419V365.869H135.211C135.435 365.869 135.619 365.797 135.763 365.653C135.923 365.493 136.003 365.293 136.003 365.053C136.003 364.829 135.923 364.645 135.763 364.501C135.619 364.357 135.435 364.285 135.211 364.285H129.235C128.707 364.285 128.211 364.189 127.747 363.997C127.283 363.805 126.875 363.541 126.523 363.205C126.187 362.853 125.915 362.453 125.707 362.005C125.499 361.541 125.395 361.045 125.395 360.517V360.325ZM144.121 356.677H150.241V361.717C150.241 362.133 150.385 362.493 150.673 362.797C150.977 363.101 151.337 363.253 151.753 363.253H154.849C155.265 363.253 155.625 363.101 155.929 362.797C156.233 362.493 156.385 362.133 156.385 361.717V356.677H162.505V361.717C162.505 362.341 162.385 362.933 162.145 363.493C161.905 364.037 161.569 364.525 161.137 364.957C160.721 365.373 160.233 365.701 159.673 365.941C159.113 366.181 158.521 366.301 157.897 366.301H156.361V368.917H150.241V366.301H148.705C148.081 366.301 147.489 366.181 146.929 365.941C146.369 365.701 145.881 365.373 145.465 364.957C145.049 364.525 144.721 364.037 144.481 363.493C144.241 362.933 144.121 362.341 144.121 361.717V356.677ZM182.849 368.917H176.729V365.725L170.585 361.333V368.917H164.465V356.677H170.585L176.729 361.117V356.677H182.849V368.917ZM190.929 359.749V368.917H184.809V356.677H198.585C199.209 356.677 199.801 356.797 200.361 357.037C200.921 357.277 201.409 357.613 201.825 358.045C202.257 358.461 202.593 358.949 202.833 359.509C203.073 360.053 203.193 360.637 203.193 361.261V364.333C203.193 364.957 203.073 365.549 202.833 366.109C202.593 366.653 202.257 367.141 201.825 367.573C201.409 367.989 200.921 368.317 200.361 368.557C199.801 368.797 199.209 368.917 198.585 368.917H192.849V365.869H195.537C195.953 365.869 196.313 365.717 196.617 365.413C196.921 365.109 197.073 364.749 197.073 364.333V361.261C197.073 360.845 196.921 360.493 196.617 360.205C196.313 359.901 195.953 359.749 195.537 359.749H190.929ZM205.176 356.677H211.296V368.917H205.176V356.677ZM217.869 356.677H230.037V359.749H220.917C220.501 359.749 220.141 359.901 219.837 360.205C219.549 360.493 219.405 360.845 219.405 361.261V364.333C219.405 364.749 219.549 365.109 219.837 365.413C220.141 365.717 220.501 365.869 220.917 365.869H230.037V368.917H217.869C217.245 368.917 216.653 368.797 216.093 368.557C215.533 368.317 215.045 367.989 214.629 367.573C214.213 367.141 213.885 366.653 213.645 366.109C213.405 365.549 213.285 364.957 213.285 364.333V361.261C213.285 360.637 213.405 360.053 213.645 359.509C213.885 358.949 214.213 358.461 214.629 358.045C215.045 357.613 215.533 357.277 216.093 357.037C216.653 356.797 217.245 356.677 217.869 356.677ZM232.012 368.917V361.261C232.012 360.637 232.132 360.053 232.372 359.509C232.612 358.949 232.94 358.461 233.356 358.045C233.772 357.613 234.26 357.277 234.82 357.037C235.38 356.797 235.972 356.677 236.596 356.677H245.788C246.412 356.677 247.004 356.797 247.564 357.037C248.124 357.277 248.612 357.613 249.028 358.045C249.46 358.461 249.796 358.949 250.036 359.509C250.276 360.053 250.396 360.637 250.396 361.261V368.917H244.276V366.877H240.052V363.805H244.276V361.261C244.276 360.845 244.124 360.493 243.82 360.205C243.516 359.901 243.156 359.749 242.74 359.749H239.644C239.228 359.749 238.868 359.901 238.564 360.205C238.276 360.493 238.132 360.845 238.132 361.261V368.917H232.012ZM252.145 359.749V356.677H269.185V359.749H263.713V368.917H257.593V359.749H252.145ZM275.526 356.677H287.694V359.749H278.574C278.158 359.749 277.798 359.901 277.494 360.205C277.206 360.493 277.062 360.853 277.062 361.285H285.75V364.333H277.062C277.062 364.749 277.206 365.109 277.494 365.413C277.798 365.717 278.158 365.869 278.574 365.869H287.694V368.917H275.526C274.902 368.917 274.31 368.797 273.75 368.557C273.19 368.317 272.702 367.989 272.286 367.573C271.87 367.141 271.542 366.653 271.302 366.109C271.062 365.549 270.942 364.957 270.942 364.333V361.261C270.942 360.637 271.062 360.053 271.302 359.509C271.542 358.949 271.87 358.461 272.286 358.045C272.702 357.613 273.19 357.277 273.75 357.037C274.31 356.797 274.902 356.677 275.526 356.677Z" fill="white"/>
</svg>
